<svg id="Component_63_1" data-name="Component 63 – 1" xmlns="http://www.w3.org/2000/svg" width="128.17" height="30" viewBox="0 0 128.17 30">
  <defs>
    <style>
      .cls-1 {
        fill: #324755;
      }
    </style>
  </defs>
  <path id="Path_63" data-name="Path 63" class="cls-1" d="M-19.553-14.427l-3.284,5.373h-7.548L-33.924,1.074h6.866q-.3,3.369-4.072,3.412l-4.009.043L-36.8,9.24q-2.217,6.333-8.785,6.333H-60.513a17.526,17.526,0,0,1,1.642-3.39,3.527,3.527,0,0,1,2.9-1.77,3.507,3.507,0,0,1,.533.043l9.957,1.578L-38.1-9.054H-50.3a8.2,8.2,0,0,0-4.947,1.6,5.258,5.258,0,0,0-2.388,4.392q0,1.834,1.237,2.09a5,5,0,0,1,2.09-3.177A5.989,5.989,0,0,1-50.683-5.3a5.769,5.769,0,0,1,3.838,1.365A4.649,4.649,0,0,1-45.1-.184,4.562,4.562,0,0,1-47.186,3.8,7.659,7.659,0,0,1-51.643,5.04a11.613,11.613,0,0,1-6.844-1.919,6.881,6.881,0,0,1-3.028-5.928,10.22,10.22,0,0,1,4.478-8.827,16.548,16.548,0,0,1,9.808-2.793Zm7.719,6.759a4.706,4.706,0,0,1-1.652,3.625,5.726,5.726,0,0,1-3.977,1.493,5.782,5.782,0,0,1-4.019-1.493,4.706,4.706,0,0,1-1.652-3.625,4.684,4.684,0,0,1,1.652-3.6,5.782,5.782,0,0,1,4.019-1.493,5.726,5.726,0,0,1,3.977,1.493A4.684,4.684,0,0,1-11.834-7.668ZM-10.3,12.161a4.4,4.4,0,0,1-2.3,2.772,5.935,5.935,0,0,1-2.729.64h-8.422q-3.049,0-3.049-2.559a4.621,4.621,0,0,1,.3-1.557l3.71-10.384h7.74L-19,12.161Zm18.082,0q-1,3.412-5.33,3.412H-8.421q-3.156,0-3.156-2.217a3.482,3.482,0,0,1,.235-1.194l2.708-7.676h-3.5l1.343-3.412A14.467,14.467,0,0,0-5.244-1.378a20.285,20.285,0,0,0,4.371-6.1H3.284L.278,1.074h5.5Q4.457,4.485.406,4.485H-1l-2.665,7.676ZM39.959-14.427,31.622,9.24q-2.217,6.333-8.827,6.333H7.869a17.526,17.526,0,0,1,1.642-3.39,3.527,3.527,0,0,1,2.9-1.77,3.507,3.507,0,0,1,.533.043L22.9,12.033,30.364-9.054H18.04a8.073,8.073,0,0,0-4.9,1.6,5.258,5.258,0,0,0-2.388,4.392q0,1.834,1.237,2.09a5,5,0,0,1,2.09-3.177A5.989,5.989,0,0,1,17.7-5.3a5.769,5.769,0,0,1,3.838,1.365A4.649,4.649,0,0,1,23.285-.184,4.562,4.562,0,0,1,21.2,3.8,7.659,7.659,0,0,1,16.739,5.04,11.613,11.613,0,0,1,9.895,3.121,6.881,6.881,0,0,1,6.867-2.807a10.22,10.22,0,0,1,4.478-8.827A16.624,16.624,0,0,1,21.2-14.427Zm26.7,26.588A4.341,4.341,0,0,1,64.2,14.933a6.61,6.61,0,0,1-2.878.64H52.817q-2.921,0-2.921-1.919a4.613,4.613,0,0,1,.3-1.493l1.62-4.584-7.335,6.2a8.14,8.14,0,0,1-4.243,1.791H36.314l5.1-14.5h7.7L46.7,7.9l6.5-5.33A8.508,8.508,0,0,1,58.936.5a1.953,1.953,0,0,1,2.09,2.217,5.449,5.449,0,0,1-.341,1.77l-2.751,7.676Z" transform="translate(61.515 14.427)"/>
</svg>
