<svg xmlns="http://www.w3.org/2000/svg" width="320" height="235.447" viewBox="0 0 320 235.447">
  <defs>
    <style>
      .cls-1 {
        fill: #cbcbcb;
      }

      .cls-2 {
        fill: #e6e6e6;
      }

      .cls-3 {
        fill: #fff;
      }

      .cls-4 {
        fill: #d97d54;
      }

      .cls-5 {
        fill: #9f616a;
      }

      .cls-6 {
        opacity: 0.1;
      }

      .cls-7 {
        fill: #2f2e41;
      }
    </style>
  </defs>
  <g id="undraw_fitness_stats_sht6" transform="translate(-12.991 18)">
    <path id="Path_328" data-name="Path 328" class="cls-1" d="M373.773,723.735H210.86a.428.428,0,0,1,0-.855H373.773a.428.428,0,0,1,0,.855Z" transform="translate(-41.21 -511.349)"/>
    <path id="Path_363" data-name="Path 363" class="cls-2" d="M801.009,492.177l17.351-25.8-17.315,28.579.036,2.9q-1.9.015-3.763-.063l.861-37.322-.024-.288.032-.056.082-3.527-19-27.588,18.979,24.948.067.745.65-28.2-16.412-28.6,16.459,23.649-.172-58.419v-.194l.006.191,1.09,46.042,14.958-18.7-14.909,22.669.326,25.223,13.764-24.616L800.36,442.071l.182,14.025,20.017-34.29L800.6,460.989Z" transform="translate(-546.216 -286.151)"/>
    <path id="Path_364" data-name="Path 364" class="cls-2" d="M957.359,494.353l17.351-25.8-17.316,28.579.036,2.9q-1.9.014-3.763-.063l.861-37.322-.024-.288.032-.056.082-3.527-19-27.588L954.6,456.137l.067.745.65-28.2-16.412-28.6,16.459,23.649-.172-58.419v-.194l.006.191,1.09,46.042,14.958-18.7-14.909,22.669.326,25.223,13.764-24.616-13.714,28.325.182,14.025,20.017-34.29-19.956,39.183Z" transform="translate(-644.173 -287.515)"/>
    <g id="Component_64_1" data-name="Component 64 – 1" transform="translate(12.991 -18)">
      <rect id="Rectangle_147" data-name="Rectangle 147" class="cls-2" width="125.682" height="170"/>
      <rect id="Rectangle_148" data-name="Rectangle 148" class="cls-3" width="116.824" height="158.019" transform="translate(4.429 5.991)"/>
      <path id="Path_365" data-name="Path 365" class="cls-2" d="M372.978,228.651H287.24a2.621,2.621,0,0,1,0-5.242h85.739a2.621,2.621,0,0,1,0,5.242Z" transform="translate(-267.081 -194.944)"/>
      <path id="Path_366" data-name="Path 366" class="cls-2" d="M372.978,288.28H287.24a2.621,2.621,0,0,1,0-5.242h85.739a2.621,2.621,0,0,1,0,5.242Z" transform="translate(-267.081 -227.617)"/>
      <path id="Path_367" data-name="Path 367" class="cls-2" d="M372.978,347.909H287.24a2.621,2.621,0,0,1,0-5.242h85.739a2.621,2.621,0,1,1,0,5.242Z" transform="translate(-267.081 -260.289)"/>
      <path id="Path_368" data-name="Path 368" class="cls-2" d="M372.978,407.538H287.24a2.621,2.621,0,1,1,0-5.242h85.739a2.621,2.621,0,1,1,0,5.242Z" transform="translate(-267.081 -292.96)"/>
      <path id="Path_369" data-name="Path 369" class="cls-2" d="M372.978,467.167H287.24a2.621,2.621,0,0,1,0-5.242h85.739a2.621,2.621,0,0,1,0,5.242Z" transform="translate(-267.081 -325.632)"/>
      <path id="Path_370" data-name="Path 370" class="cls-4" d="M357.549,228.651H286.412a2.621,2.621,0,1,1,0-5.242h71.137a2.621,2.621,0,1,1,0,5.242Z" transform="translate(-266.627 -194.944)"/>
      <path id="Path_371" data-name="Path 371" class="cls-4" d="M335.459,288.28H286.412a2.621,2.621,0,1,1,0-5.242h49.047a2.621,2.621,0,0,1,0,5.242Z" transform="translate(-266.627 -227.617)"/>
      <path id="Path_372" data-name="Path 372" class="cls-4" d="M308.5,347.909h-22.09a2.621,2.621,0,1,1,0-5.242H308.5a2.621,2.621,0,0,1,0,5.242Z" transform="translate(-266.627 -260.289)"/>
      <path id="Path_373" data-name="Path 373" class="cls-4" d="M364.288,407.538H286.412a2.621,2.621,0,1,1,0-5.242h77.876a2.621,2.621,0,1,1,0,5.242Z" transform="translate(-266.627 -292.96)"/>
      <path id="Path_374" data-name="Path 374" class="cls-4" d="M347.065,467.167H286.412a2.621,2.621,0,1,1,0-5.242h60.654a2.621,2.621,0,1,1,0,5.242Z" transform="translate(-266.627 -325.632)"/>
    </g>
    <path id="Path_375" data-name="Path 375" class="cls-5" d="M646.395,408.989s-2.348-17.215-6.26-12.52,0,11.738,0,11.738l3.13,3.912,3.13-2.347Z" transform="translate(-457.958 -306.65)"/>
    <path id="Path_376" data-name="Path 376" class="cls-1" d="M659.868,433.886s-7.825-8.607-9.39-7.042-6.26,2.347-5.478,5.477,17.215,13.3,17.215,13.3Z" transform="translate(-462.041 -326.069)"/>
    <path id="Path_377" data-name="Path 377" class="cls-6" d="M659.868,433.886s-7.825-8.607-9.39-7.042-6.26,2.347-5.478,5.477,17.215,13.3,17.215,13.3Z" transform="translate(-462.041 -326.069)"/>
    <path id="Path_378" data-name="Path 378" class="cls-5" d="M792.893,443.924v6.26s.782,14.085-3.913,13.3-2.347-12.52-2.347-12.52l.783-7.042Z" transform="translate(-550.464 -336.889)"/>
    <path id="Path_379" data-name="Path 379" class="cls-5" d="M773.153,565.443s7.042,10.955,9.39,11.737,14.867,7.825,16.432,14.867l10.955,14.085-5.477,7.042s-25.04-26.6-32.082-28.952-14.085-14.085-14.085-14.085Z" transform="translate(-533.071 -413.023)"/>
    <path id="Path_380" data-name="Path 380" class="cls-5" d="M627.913,517.254s-14.867,2.347-12.52,11.737,25.04,28.952,25.04,28.952l.783,4.695,8.607,1.565,3.913-3.913-.783-2.347s-9.39-8.607-10.173-11.737-9.39-15.65-13.3-16.432l5.477-3.13Z" transform="translate(-443.388 -382.832)"/>
    <path id="Path_381" data-name="Path 381" class="cls-7" d="M881.749,667.68s-3.13-4.695,1.565-3.913,7.825,1.565,7.825,4.7-3.912,25.04-8.607,23.475-.782-8.607-.782-8.607-2.347-6.26-3.913-7.042-1.565-4.695,0-4.695S882.531,669.245,881.749,667.68Z" transform="translate(-607.237 -474.57)"/>
    <path id="Path_382" data-name="Path 382" class="cls-7" d="M679.134,625.38s0-3.912,3.13,0,4.7,7.042,1.565,9.39-14.085,7.825-14.085,7.825-11.737,2.347-10.172-3.13c0,0,7.825-3.912,7.825-7.042s0-8.607,2.348-7.042S679.134,627.728,679.134,625.38Z" transform="translate(-471.135 -449.485)"/>
    <path id="Path_383" data-name="Path 383" class="cls-7" d="M682.429,471.161s10.955,1.565,10.172,17.215c0,0,14.085,14.085,10.172,18.78s-12.52,13.3-15.65,10.955-12.52-20.345-12.52-20.345-21.91,7.825-25.822,3.913-7.825-13.3-7.825-13.3L660.519,478.2Z" transform="translate(-459.562 -353.954)"/>
    <circle id="Ellipse_108" data-name="Ellipse 108" class="cls-5" cx="9.39" cy="9.39" r="9.39" transform="translate(182.96 53.825)"/>
    <path id="Path_384" data-name="Path 384" class="cls-5" d="M676.018,328.69s5.477,8.607,7.042,9.39-10.955,8.607-10.955,8.607,0-10.172-3.913-12.52Z" transform="translate(-476.626 -264.693)"/>
    <path id="Path_385" data-name="Path 385" class="cls-1" d="M676.8,349.711s12.52-3.913,14.867,2.347,7.825,18,7.043,25.822-2.348,6.26,0,8.607,3.912.782,3.13,3.912-1.565,3.13-.782,4.695-9.39,7.042-18,7.825l-8.608.782s0-14.085-1.565-17.215-4.695-9.39-4.695-11.737V368.54a23.756,23.756,0,0,1,3.13-11.786h0S676.019,349.711,676.8,349.711Z" transform="translate(-476.627 -277.106)"/>
    <path id="Path_386" data-name="Path 386" class="cls-1" d="M704.893,360.117s28.952,2.347,32.082,10.173,4.7,23.475,1.565,23.475-7.042,1.565-7.825,0-3.912-17.215-4.7-17.215-24.257-2.348-24.257-2.348S691.591,361.682,704.893,360.117Z" transform="translate(-495.328 -284.382)"/>
    <path id="Path_387" data-name="Path 387" class="cls-7" d="M647.319,306.352s-2.492-4.33-5.607-.569-8.182-3.151-7.4-4.626,3.525.066,8.232-1.473,13.776-4.674,15.294,5.553-2.1,9.154-2.1,9.154-1.658-9.062-3.156-6.459l-1.5,2.6-1.3.32Z" transform="translate(-455.347 -245.465)"/>
  </g>
</svg>
