<svg xmlns="http://www.w3.org/2000/svg" width="320" height="235.91" viewBox="0 0 320 235.91">
  <defs>
    <style>
      .cls-1 {
        fill: #f1f1f1;
      }

      .cls-2 {
        fill: #fff;
      }

      .cls-3 {
        fill: #e6e6e6;
      }

      .cls-4 {
        fill: #3f3d56;
      }

      .cls-5 {
        fill: #d97d54;
      }

      .cls-6 {
        fill: #9f616a;
      }

      .cls-7 {
        fill: #2f2e41;
      }

      .cls-8 {
        fill: #cbcbcb;
      }

      .cls-9 {
        opacity: 0.1;
      }
    </style>
  </defs>
  <g id="undraw_Metrics_re_6g90" transform="translate(0.001 10.001)">
    <path id="Path_303" data-name="Path 303" class="cls-1" d="M235.926,614.533l-.391-.722c5.236-2.832,11.753-6.356,15.156-12.139,3.355-5.7,3.431-13.443.2-20.2-2.752-5.754-7.808-10.91-14.621-14.909-1.344-.789-2.754-1.536-4.119-2.26a45.125,45.125,0,0,1-9.519-6.119c-3.872-3.531-6.8-9.457-4.618-14.736a9.794,9.794,0,0,1,8.489-5.94l.046.82a8.975,8.975,0,0,0-7.779,5.439c-2.029,4.905.755,10.471,4.415,13.81a44.522,44.522,0,0,0,9.35,6c1.372.727,2.791,1.479,4.15,2.277,6.954,4.082,12.123,9.36,14.946,15.263,3.35,7,3.262,15.042-.23,20.975C247.88,608.069,241.252,611.654,235.926,614.533Z" transform="translate(-214.46 -388.625)"/>
    <ellipse id="Ellipse_89" data-name="Ellipse 89" class="cls-1" cx="7.185" cy="3.49" rx="7.185" ry="3.49" transform="translate(10.06 146.229)"/>
    <ellipse id="Ellipse_90" data-name="Ellipse 90" class="cls-1" cx="7.185" cy="3.49" rx="7.185" ry="3.49" transform="translate(15.808 169.221)"/>
    <ellipse id="Ellipse_91" data-name="Ellipse 91" class="cls-1" cx="7.185" cy="3.49" rx="7.185" ry="3.49" transform="translate(2.67 172.916)"/>
    <ellipse id="Ellipse_92" data-name="Ellipse 92" class="cls-1" cx="7.185" cy="3.49" rx="7.185" ry="3.49" transform="translate(23.198 192.212)"/>
    <ellipse id="Ellipse_93" data-name="Ellipse 93" class="cls-1" cx="7.185" cy="3.49" rx="7.185" ry="3.49" transform="translate(37.568 192.212)"/>
    <circle id="Ellipse_94" data-name="Ellipse 94" class="cls-2" cx="0.889" cy="0.889" r="0.889" transform="translate(249.625 2.312)"/>
    <g id="Component_65_1" data-name="Component 65 – 1" transform="translate(197.028 -10.001)">
      <path id="Path_304" data-name="Path 304" class="cls-3" d="M767.452,344.818H663.132a9.477,9.477,0,0,1-6.942-3.1,9.114,9.114,0,0,1-2.384-6.221V184.205a9.337,9.337,0,0,1,9.326-9.326h104.32a9.337,9.337,0,0,1,9.326,9.326V335.492a9.337,9.337,0,0,1-9.326,9.327Z" transform="translate(-653.806 -174.879)"/>
      <path id="Path_305" data-name="Path 305" class="cls-2" d="M778.481,349.164H673.794a2.878,2.878,0,0,1-2.875-2.875V194a2.878,2.878,0,0,1,2.875-2.875H778.481A2.878,2.878,0,0,1,781.356,194V346.289A2.878,2.878,0,0,1,778.481,349.164Z" transform="translate(-664.652 -185.176)"/>
      <path id="Path_306" data-name="Path 306" class="cls-4" d="M790.41,394.023H706.019a.264.264,0,0,1-.264-.264V353.31a.264.264,0,1,1,.528,0v40.185H790.41a.264.264,0,1,1,0,.528Z" transform="translate(-686.729 -287.792)"/>
      <path id="Path_307" data-name="Path 307" class="cls-5" d="M741.069,435.974h-7.675a.785.785,0,0,1-.784-.784V424.609a.785.785,0,0,1,.784-.784h7.676a.785.785,0,0,1,.784.784v10.581A.785.785,0,0,1,741.069,435.974Z" transform="translate(-703.748 -332.65)"/>
      <path id="Path_308" data-name="Path 308" class="cls-5" d="M779.288,418.608h-7.675a.785.785,0,0,1-.784-.784V397.208a.785.785,0,0,1,.784-.784h7.676a.785.785,0,0,1,.784.784v20.617A.785.785,0,0,1,779.288,418.608Z" transform="translate(-727.969 -315.284)"/>
      <path id="Path_309" data-name="Path 309" class="cls-5" d="M817.507,435.974h-7.676a.785.785,0,0,1-.784-.784V424.609a.785.785,0,0,1,.784-.784h7.676a.785.785,0,0,1,.784.784v10.581A.785.785,0,0,1,817.507,435.974Z" transform="translate(-752.191 -332.65)"/>
      <path id="Path_310" data-name="Path 310" class="cls-5" d="M855.726,411.753H848.05a.768.768,0,0,1-.784-.748v-24.65a.768.768,0,0,1,.784-.748h7.676a.768.768,0,0,1,.784.748V411A.768.768,0,0,1,855.726,411.753Z" transform="translate(-776.412 -308.428)"/>
      <path id="Path_311" data-name="Path 311" class="cls-5" d="M893.945,399.414h-7.676a.785.785,0,0,1-.784-.784v-31.71a.785.785,0,0,1,.784-.784h7.676a.785.785,0,0,1,.784.784v31.71A.785.785,0,0,1,893.945,399.414Z" transform="translate(-800.634 -296.088)"/>
      <circle id="Ellipse_95" data-name="Ellipse 95" class="cls-4" cx="1.585" cy="1.585" r="1.585" transform="translate(31.899 84.838)"/>
      <circle id="Ellipse_96" data-name="Ellipse 96" class="cls-4" cx="1.585" cy="1.585" r="1.585" transform="translate(45.896 74.538)"/>
      <circle id="Ellipse_97" data-name="Ellipse 97" class="cls-4" cx="1.585" cy="1.585" r="1.585" transform="translate(59.894 84.838)"/>
      <circle id="Ellipse_98" data-name="Ellipse 98" class="cls-4" cx="1.585" cy="1.585" r="1.585" transform="translate(73.891 69.52)"/>
      <circle id="Ellipse_99" data-name="Ellipse 99" class="cls-4" cx="1.585" cy="1.585" r="1.585" transform="translate(87.889 63.71)"/>
      <path id="Path_312" data-name="Path 312" class="cls-4" d="M562.55,199.631l-14.031-10.509L534.68,199.488l-.317-.423,14.156-10.6,13.964,10.46,13.876-15.186.056-.023,14-5.64.2.49-13.942,5.618Z" transform="translate(-501.038 -112.854)"/>
    </g>
    <path id="Path_313" data-name="Path 313" class="cls-6" d="M439.427,396.2a4.1,4.1,0,0,0-3.147,1.471l-18.4-.575-.72-3.1-9.521,4.646,1.232,8.494,28.038-3.59a4.1,4.1,0,1,0,2.516-7.345Z" transform="translate(-326.675 -304.034)"/>
    <path id="Path_314" data-name="Path 314" class="cls-6" d="M191.626,509.212h5.033l2.395-19.415h-7.429Z" transform="translate(-112.951 -288.704)"/>
    <path id="Path_315" data-name="Path 315" class="cls-7" d="M398.933,707.961h9.913a6.317,6.317,0,0,1,6.317,6.317v.206h-16.23Z" transform="translate(-321.542 -489.097)"/>
    <path id="Path_316" data-name="Path 316" class="cls-6" d="M145.367,500.558l4.836,1.4,7.691-17.987-7.137-2.062Z" transform="translate(-85.685 -284.053)"/>
    <path id="Path_317" data-name="Path 317" class="cls-7" d="M351.307,697.5l9.523,2.752h0a6.318,6.318,0,0,1,4.315,7.823l-.057.2L349.5,703.768Z" transform="translate(-292.402 -482.932)"/>
    <path id="Path_318" data-name="Path 318" class="cls-7" d="M386.2,506.627s-1.79,5,1.034,11.81l2.179,28.069.645,39.92h9.176l5.553-40.7,3.335-36.9Z" transform="translate(-313.707 -370.424)"/>
    <path id="Path_319" data-name="Path 319" class="cls-7" d="M363.468,506.627s-1.79,5,1.034,11.81l2.179,28.069-10.851,38.02h9.176l17.049-38.8,3.335-36.9Z" transform="translate(-296.136 -370.424)"/>
    <circle id="Ellipse_100" data-name="Ellipse 100" class="cls-6" cx="10.084" cy="10.084" r="10.084" transform="translate(84.168 51.655)"/>
    <path id="Path_320" data-name="Path 320" class="cls-8" d="M399.1,362.887l-2.044-9.495-10.405-5.908-2.11,2.954s-14.889,3.913-13.088,21.009.98,25.308.98,25.308l-4.106,18.886s1.264.217,30.271,5.284l1.232-41.056Z" transform="translate(-303.504 -276.619)"/>
    <path id="Path_321" data-name="Path 321" class="cls-9" d="M194.7,435.17l-9.449,19.087v5.471Z" transform="translate(-109.194 -256.505)"/>
    <path id="Path_322" data-name="Path 322" class="cls-7" d="M411.289,307.311a3.257,3.257,0,0,0,5.883.5,3.3,3.3,0,0,0,.243-.591c.352-1.167.13-2.453.78-3.57a1.885,1.885,0,0,1,.659-.681c2.158-1.273,4.282,2.766,6.289,1.636,1.23-.693.967-2.7,2.062-3.6,1.445-1.177,3.533.576,5.386.376,2.062-.223,3.037-2.835,2.589-4.859a8.623,8.623,0,0,0-4.745-5.595,17.539,17.539,0,0,0-7.371-1.523c-2.873-.071-5.878.234-8.307,1.769A11.815,11.815,0,0,0,409.77,300C409.545,302.11,410.5,305.208,411.289,307.311Z" transform="translate(-327.91 -242.382)"/>
    <path id="Path_323" data-name="Path 323" class="cls-4" d="M532.9,415.864h.044a29.924,29.924,0,0,0,.67-59.724.683.683,0,0,0-.517.179.676.676,0,0,0-.221.495l-.654,58.36a.685.685,0,0,0,.677.691Z" transform="translate(-400.108 -281.72)"/>
    <path id="Path_324" data-name="Path 324" class="cls-3" d="M464.979,379.647a.882.882,0,0,1,.619.264l20.091,20.547a.872.872,0,0,1,.25.623l-.313,27.925a.869.869,0,0,1-.284.636.882.882,0,0,1-.663.23,30.12,30.12,0,0,1-20.369-49.927.882.882,0,0,1,.637-.3Z" transform="translate(-355.654 -295.577)"/>
    <path id="Path_325" data-name="Path 325" class="cls-5" d="M499.627,355.561a.885.885,0,0,1,.6.246.869.869,0,0,1,.27.643l-.282,25.2a.877.877,0,0,1-1.5.6L481.18,364.32a.879.879,0,0,1,.015-1.243l.033-.03a30.182,30.182,0,0,1,18.346-7.484Z" transform="translate(-369.873 -281.38)"/>
    <path id="Path_326" data-name="Path 326" class="cls-6" d="M414.428,424.2a4.1,4.1,0,0,0-3.147,1.471l-18.4-.575-.72-3.1-9.521,4.646,1.232,8.494,28.038-3.59a4.1,4.1,0,1,0,2.516-7.345Z" transform="translate(-311.939 -320.538)"/>
    <path id="Path_327" data-name="Path 327" class="cls-8" d="M378.129,395.785l-.511-25.3a6.7,6.7,0,1,1,13.4-.136v18.493Z" transform="translate(-308.977 -286.184)"/>
    <path id="Path_328" data-name="Path 328" class="cls-8" d="M367.268,723.7H210.843a.411.411,0,0,1,0-.821H367.268a.411.411,0,0,1,0,.821Z" transform="translate(-210.433 -497.891)"/>
  </g>
</svg>
